<svg width="120" height="120" viewBox="0 0 120 120" fill="none" xmlns="http://www.w3.org/2000/svg">
<rect width="120" height="120" rx="16" fill="#D9411E"/>
<g clip-path="url(#clip0_127_99)">
<path d="M64.7605 89.2682L61.3245 92.7042C59.8696 94.1591 57.517 94.1591 56.0776 92.7042L25.9891 62.6312C24.5342 61.1763 24.5342 58.8237 25.9891 57.3843L56.0776 27.2959C57.5325 25.841 59.885 25.841 61.3245 27.2959L64.7605 30.7319C66.2309 32.2023 66.1999 34.6013 64.6986 36.0407L46.0481 53.809H90.5307C92.5892 53.809 94.2453 55.4651 94.2453 57.5236V62.4765C94.2453 64.535 92.5892 66.1911 90.5307 66.1911H46.0481L64.6986 83.9594C66.2154 85.3988 66.2463 87.7978 64.7605 89.2682Z" fill="#F2F1DF"/>
</g>
<defs>
<clipPath id="clip0_127_99">
<rect width="69.3396" height="79.2453" fill="white" transform="translate(24.9055 20.3773)"/>
</clipPath>
</defs>
</svg>
