<svg width="512" height="512" viewBox="0 0 512 512" fill="none" xmlns="http://www.w3.org/2000/svg">
<path d="M256 0C114.6 0 0 114.6 0 256C0 397.4 114.6 512 256 512C397.4 512 512 397.4 512 256C512 114.6 397.4 0 256 0ZM336.1 303C345.475 312.375 345.475 327.56 336.1 336.94C326.719 346.321 311.54 346.313 302.16 336.94L256 289.9L208.97 336.93C199.589 346.311 184.41 346.303 175.03 336.93C165.655 327.555 165.655 312.37 175.03 302.99L222.06 255.96L175 208.1C165.625 198.725 165.625 183.54 175 174.16C184.375 164.78 199.56 164.785 208.94 174.16L256 222.1L303.03 175.07C312.405 165.695 327.59 165.695 336.97 175.07C346.35 184.445 346.345 199.63 336.97 209.01L289.94 256.04L336.1 303Z" fill="#F84444"/>
</svg>
